<svg width="14" height="17" viewBox="0 0 14 17" fill="none" xmlns="http://www.w3.org/2000/svg">
<path d="M13.5542 5.79468C12.992 6.13489 12.5263 6.61052 12.2008 7.17706C11.8752 7.74361 11.7004 8.38253 11.6927 9.03404C11.6949 9.76732 11.9147 10.4838 12.3248 11.0949C12.7349 11.7059 13.3174 12.1846 14 12.4716C13.7309 13.33 13.3325 14.1434 12.8184 14.8845C12.0828 15.9313 11.3136 16.9779 10.1433 16.9779C8.97297 16.9779 8.67197 16.3058 7.32323 16.3058C6.00796 16.3058 5.53978 17 4.4697 17C3.39963 17 2.6529 16.0304 1.79457 14.8405C0.660789 13.1735 0.0376763 11.2186 0 9.21028C0 5.90488 2.1736 4.15308 4.31364 4.15308C5.45063 4.15308 6.3981 4.8912 7.11149 4.8912C7.79141 4.8912 8.85037 4.10892 10.1433 4.10892C10.8081 4.09196 11.4669 4.23685 12.0617 4.53082C12.6565 4.82479 13.169 5.25882 13.5542 5.79468ZM9.5303 2.70969C10.1002 2.04695 10.4229 1.21096 10.4443 0.341378C10.4453 0.226741 10.4341 0.112322 10.4109 0C9.43182 0.0945337 8.52649 0.555779 7.88056 1.28913C7.30511 1.92546 6.97032 2.73912 6.93309 3.59183C6.93352 3.69554 6.94473 3.79892 6.96654 3.90035C7.04373 3.91478 7.12208 3.92217 7.20063 3.92244C7.65184 3.88695 8.09103 3.76114 8.49152 3.55266C8.892 3.34418 9.24542 3.05738 9.5303 2.70969Z" fill="white"/>
</svg>
